<?xml version="1.0" encoding="UTF-8" standalone="no"?>
<svg
   xmlns:dc="http://purl.org/dc/elements/1.1/"
   xmlns:cc="http://creativecommons.org/ns#"
   xmlns:rdf="http://www.w3.org/1999/02/22-rdf-syntax-ns#"
   xmlns:svg="http://www.w3.org/2000/svg"
   xmlns="http://www.w3.org/2000/svg"
   xmlns:sodipodi="http://sodipodi.sourceforge.net/DTD/sodipodi-0.dtd"
   xmlns:inkscape="http://www.inkscape.org/namespaces/inkscape"
   enable-background="new 0 0 512 512"
   id="Layer_1"
   version="1.1"
   viewBox="0 0 160 512"
   xml:space="preserve"
   inkscape:version="0.91 r13725"
   sodipodi:docname="left-wide.svg"
   width="160"
   height="512"><metadata
     id="metadata4151"><rdf:RDF><cc:Work
         rdf:about=""><dc:format>image/svg+xml</dc:format><dc:type
           rdf:resource="http://purl.org/dc/dcmitype/StillImage" /><dc:title /></cc:Work></rdf:RDF></metadata><defs
     id="defs4149" /><sodipodi:namedview
     pagecolor="#ffffff"
     bordercolor="#666666"
     borderopacity="1"
     objecttolerance="10"
     gridtolerance="10"
     guidetolerance="10"
     inkscape:pageopacity="0"
     inkscape:pageshadow="2"
     inkscape:window-width="1280"
     inkscape:window-height="697"
     id="namedview4147"
     showgrid="false"
     inkscape:zoom="0.921875"
     inkscape:cx="-192.65961"
     inkscape:cy="270.60009"
     inkscape:window-x="-8"
     inkscape:window-y="-8"
     inkscape:window-maximized="1"
     inkscape:current-layer="g4141" /><g
     id="g4141"
     transform="matrix(0.57407386,0,0,1,112.46082,0)"><path
       d="m -183.78086,266.5 c 2.6,0 5.3,-1 7.3,-3 L 77.519129,18 c 4.2,-4 4.3,-10.7 0.3,-14.9 -4,-4.2 -10.7,-4.3 -14.9,-0.3 L -191.08086,248.3 c -4.2,4 -4.3,10.7 -0.3,14.9 2.1,2.3 4.8,3.3 7.6,3.3 z"
       id="path4143"
       inkscape:connector-curvature="0"
       style="fill:#ebebeb;fill-opacity:1" /><path
       d="m 70.219129,512 c 2.8,0 5.5,-1.1 7.6,-3.2 4,-4.2 3.9,-10.9 -0.3,-14.9 L -176.48086,248.4 c -4.2,-4 -10.9,-3.9 -14.9,0.3 -4,4.2 -3.9,10.9 0.3,14.9 L 62.919129,509 c 2,2 4.7,3 7.3,3 z"
       id="path4145"
       inkscape:connector-curvature="0"
       style="fill:#ebebeb;fill-opacity:1" /></g></svg>